<svg viewBox="0 0 96 96" xmlns="http://www.w3.org/2000/svg" xmlns:xlink="http://www.w3.org/1999/xlink" id="Icons_Diamond_M" overflow="hidden"><style>
.MsftOfcThm_Background1_Fill_v2 {
 fill:#FFFFFF; 
}
</style>
<g id="Icons"><path d="M74.48 17 21.52 17 4.66 38.074 48 81.414 91.34 38.074ZM31.323 39 46.578 77.136C46.588 77.161 46.578 77.166 46.561 77.147L8.431 39.017C8.422 39.008 8.425 39 8.438 39ZM62.523 39 48.009 75.284C48.004 75.297 47.996 75.297 47.991 75.284L33.477 39ZM33.344 37 38.744 19 57.256 19 62.656 37ZM64.677 39 87.562 39C87.575 39 87.578 39.008 87.569 39.017L49.439 77.147C49.436 77.1517 49.4297 77.153 49.425 77.15 49.4203 77.147 49.419 77.1407 49.422 77.136ZM87.9 37 64.744 37 59.344 19 73.52 19 87.907 36.984C87.914 36.993 87.91 37 87.9 37ZM22.48 19 36.656 19 31.256 37 8.1 37C8.089 37 8.085 36.993 8.092 36.984Z" class="MsftOfcThm_Background1_Fill_v2" fill="#FFFFFF"/></g></svg>