<svg viewBox="0 0 96 96" xmlns="http://www.w3.org/2000/svg" xmlns:xlink="http://www.w3.org/1999/xlink" id="Icons_Rocket_M" overflow="hidden"><g id="Icons"><path d="M26.9 54.25 11.987 57.624C10.8211 57.8997 9.61775 57.343 9.073 56.276 8.45916 55.2134 8.63908 53.8705 9.511 53.007L25.377 37.14C26.1717 36.4011 27.3115 36.1656 28.334 36.529L32.504 38.188C32.804 37.599 33.131 37.006 33.457 36.414L29.04 34.658C27.2992 34.0252 25.3505 34.4253 24 35.693L8.1 51.593C6.58471 53.0777 6.26517 55.3992 7.323 57.238 8.11314 58.7447 9.67272 59.6898 11.374 59.693 11.7285 59.6922 12.0819 59.6529 12.428 59.576L26.497 56.393C26.613 55.706 26.746 55 26.9 54.25Z" stroke="#1B2D4F" fill="#1B2D4F"/><path d="M59.127 61.552C58.535 61.881 57.944 62.205 57.352 62.508L59.285 67.494C59.6938 68.4906 59.4617 69.6353 58.697 70.394L42.797 86.294C41.7531 87.3757 40.0299 87.4064 38.9481 86.3624 38.2663 85.7044 37.9757 84.7391 38.181 83.814L41.615 68.067C40.889 68.2223 40.176 68.3627 39.476 68.488L36.228 83.388C35.7401 85.4396 36.7017 87.5615 38.566 88.547 40.4177 89.5898 42.7405 89.2463 44.211 87.712L60.111 71.812C61.4434 70.4839 61.8479 68.4857 61.137 66.744Z" stroke="#1B2D4F" fill="#1B2D4F"/><path d="M88.511 7.693C87.163 6.346 82.098 6.679 73.459 8.683 71.317 9.183 69.143 9.8 66.813 10.576L64.127 11.476C56.8427 14.5567 50.2402 19.0487 44.7 24.693 32.4 36.987 28.966 51.952 28.011 59.779L27.952 60.263 34.841 67.152 35.325 67.093C44.989 65.914 58.938 62.08 70.511 50.507 76.1747 45.0015 80.675 38.4146 83.745 31.137L84.856 28.037C85.366 26.615 85.827 25.137 86.228 23.651L86.803 21.528C89 13.443 90.077 9.154 88.511 7.693ZM81.877 30.423C78.9082 37.4375 74.5637 43.7859 69.1 49.093 58.12 60.073 44.9 63.838 35.568 65.047L30.061 59.539C31.061 51.849 34.491 37.73 46.114 26.107 51.4491 20.6649 57.806 16.3294 64.82 13.349L67.446 12.474C68.307 12.187 69.146 11.928 69.964 11.684 72.7254 13.2682 75.2687 15.2051 77.53 17.446 79.908 19.837 81.9501 22.54 83.6 25.481 83.4 26.116 83.191 26.746 82.97 27.363ZM84.877 21.004 84.377 22.846C82.8102 20.3911 80.9902 18.1072 78.947 16.032 77.0137 14.1334 74.8978 12.4301 72.63 10.947 73.059 10.838 73.488 10.73 73.914 10.631 82.377 8.667 86.5 8.66 87.109 9.118 87.84 10.1 86.125 16.4 84.873 21Z" stroke="#1B2D4F" fill="#1B2D4F"/><path d="M30.69 66.218C30.3005 66.0135 29.9349 65.7663 29.6 65.481 29.2876 65.1376 29.0168 64.7587 28.793 64.352 28.346 63.612 27.839 62.773 26.822 62.652 25.888 62.544 24.922 63.072 23.497 64.496 21.433 66.56 14.246 75.59 16.797 78.31 17.2302 78.7237 17.8147 78.9407 18.413 78.91 19.646 78.91 21.355 78.261 23.573 76.957 26.1218 75.4501 28.4869 73.6524 30.621 71.6 32.035 70.144 32.582 69.121 32.45 68.179 32.306 67.147 31.448 66.654 30.69 66.218ZM29.2 70.193C25.488 73.905 19.283 77.449 18.256 76.943 17.715 75.82 21.347 69.474 24.914 65.907 25.3602 65.3688 25.9154 64.9312 26.543 64.623 26.7566 64.852 26.9385 65.1087 27.084 65.386 27.3916 65.9372 27.7665 66.4482 28.2 66.907L28.223 66.93C28.6721 67.3279 29.1669 67.6709 29.697 67.952 29.9691 68.0937 30.2284 68.2586 30.472 68.445 30.469 68.463 30.457 68.894 29.2 70.193Z" stroke="#1B2D4F" fill="#1B2D4F"/><path d="M60.382 24.808C57.6522 27.5206 57.6383 31.9324 60.3508 34.6622 61.6827 36.0025 63.5017 36.7444 65.391 36.718 67.2331 36.7283 69.0035 36.0047 70.311 34.707 73.0448 31.9652 73.0383 27.5263 70.2965 24.7925 67.5547 22.0587 63.1158 22.0652 60.382 24.807ZM68.9 33.293C66.9692 35.2757 63.7967 35.3178 61.814 33.3871 59.8313 31.4563 59.7892 28.2838 61.72 26.3011 61.7509 26.2693 61.7822 26.2379 61.814 26.207 62.7492 25.2807 64.0148 24.7651 65.331 24.774 68.0788 24.7322 70.3403 26.9259 70.3821 29.6738 70.4027 31.0319 69.8673 32.3394 68.9 33.293Z" stroke="#1B2D4F" fill="#1B2D4F"/></g></svg>