<svg viewBox="0 0 96 96" xmlns="http://www.w3.org/2000/svg" xmlns:xlink="http://www.w3.org/1999/xlink" id="Icons_FlyingMoney_M" overflow="hidden"><g id="Icons"><path d="M45.9 40.244C44.2103 38.7184 42.0298 37.8488 39.754 37.793 37.974 37.7373 36.26 38.469 35.069 39.793 32.627 42.628 33.513 47.429 37.054 50.515 38.7432 52.0417 40.9238 52.9124 43.2 52.969 44.98 53.0247 46.694 52.293 47.885 50.969 50.331 48.131 49.445 43.33 45.9 40.244ZM46.37 49.66C45.5569 50.5408 44.3977 51.0195 43.2 50.969 41.4081 50.9091 39.6957 50.2149 38.368 49.01 35.706 46.691 34.889 43.069 36.584 41.102 37.3971 40.2212 38.5563 39.7425 39.754 39.793 41.5457 39.8529 43.258 40.5468 44.586 41.751 47.252 44.071 48.069 47.693 46.374 49.66Z" stroke="#1B2D4F" fill="#1B2D4F"/><path d="M53.569 25.4C52.9157 24.9243 52.1301 24.6649 51.322 24.658 50.3331 24.6337 49.3947 25.0936 48.808 25.89 47.8451 27.4957 48.3428 29.5767 49.928 30.573 50.5816 31.048 51.3671 31.307 52.175 31.314 53.1639 31.3385 54.1024 30.8785 54.689 30.082 55.6547 28.477 55.1564 26.3943 53.569 25.4ZM53.059 28.923C52.8417 29.1844 52.5146 29.3291 52.175 29.314 51.785 29.3066 51.407 29.1784 51.093 28.947 50.4196 28.5755 50.1362 27.7549 50.437 27.047 50.6547 26.7856 50.9821 26.6409 51.322 26.656 51.712 26.6639 52.09 26.7925 52.404 27.024 53.112 27.527 53.418 28.414 53.059 28.918Z" stroke="#1B2D4F" fill="#1B2D4F"/><path d="M37.435 62.035C36.7542 61.4748 35.9026 61.164 35.021 61.154 34.1059 61.1343 33.2326 61.5366 32.653 62.245 31.5931 63.7875 31.9676 65.8951 33.494 66.978 34.175 67.5378 35.0265 67.8486 35.908 67.859 36.8228 67.8788 37.6959 67.4764 38.275 66.768 39.3339 65.2255 38.96 63.1189 37.435 62.035ZM36.71 65.523C36.5068 65.7487 36.2134 65.8719 35.91 65.859 35.4855 65.8486 35.0771 65.6942 34.752 65.421 34.1083 65.007 33.8795 64.1749 34.221 63.49 34.4241 63.2642 34.7175 63.1409 35.021 63.154 35.443 63.1635 35.8492 63.3162 36.173 63.587 36.8264 63.9958 37.0594 64.836 36.71 65.523Z" stroke="#1B2D4F" fill="#1B2D4F"/><path d="M66.439 32.926 66.76 32.604 66.2 24.3 51.937 13.936 43.157 15.6 42.938 15.819C38.0591 20.6769 34.183 26.4467 31.53 32.8 29.8481 36.79 28.4949 40.9107 27.484 45.121 26.2475 50.6255 24.1061 55.8866 21.147 60.69L20.982 60.972 21.782 68.736 36.666 82.028 43.66 80.39 43.879 80.072C45.2253 78.0871 46.3014 75.9319 47.079 73.663 48.425 69.7756 49.5567 65.8174 50.469 61.806 51.919 55.906 53.169 50.806 57.25 44.147 59.869 40.0641 62.9526 36.2986 66.439 32.926ZM48.526 61.339C47.629 65.2839 46.5167 69.1767 45.194 73L45.194 73C44.5147 74.9794 43.5923 76.8668 42.448 78.619L37.224 79.842 23.7 67.76 23.043 61.416C26.0176 56.5325 28.1733 51.1954 29.425 45.616 30.4139 41.4985 31.7369 37.4684 33.381 33.566 35.8921 27.5481 39.545 22.0737 44.138 17.445L51.459 16.062 64.266 25.369 64.704 31.834C61.2337 35.2293 58.1615 39.009 55.547 43.1 51.306 50.026 50.019 55.264 48.526 61.339Z" stroke="#1B2D4F" fill="#1B2D4F"/><path d="M93.8 64.069C93.6295 63.6861 93.2383 63.4501 92.82 63.478 89.537 63.694 86.607 61.351 83.888 58.93 81.6459 56.9237 79.6052 54.7032 77.795 52.3 75.846 49.811 74.437 48.013 71.257 47.031 67.39 45.831 63.204 47.477 60.071 49.331 60.508 48.502 60.99 47.651 61.532 46.766 67.473 37.066 79.726 27.935 79.726 27.935L48.277 5.084C39.3582 10.9081 32.2716 19.1395 27.838 28.825 27.3661 26.9082 26.4007 25.1482 25.038 23.72 23.057 21.782 21.154 21.529 18.746 21.208 16.4226 20.9458 14.1333 20.4397 11.916 19.698 9.675 18.943 6.556 17.643 5.347 15.082 5.11124 14.5826 4.51525 14.3688 4.01581 14.6046 3.82561 14.6943 3.66856 14.8418 3.567 15.026 1.841 18.156 1.129 23.15 2.921 26.084 4.11647 27.7338 5.80656 28.9598 7.746 29.584 7.74987 29.5871 7.75047 29.5928 7.74734 29.5967 7.74694 29.5972 7.74649 29.5976 7.746 29.598 6.8194 30.7376 6.53951 32.2716 7.004 33.665 7.567 35.465 9.534 37.265 12.777 37.784 12.782 37.7843 12.7858 37.7885 12.7855 37.7935 12.7854 37.7951 12.7849 37.7967 12.784 37.798 12.5582 38.2253 12.4385 38.7007 12.435 39.184 12.4459 39.9943 12.8291 40.7544 13.474 41.245 15.274 42.738 18.457 42.514 19.931 42.31 20.4749 43.275 21.2339 44.1017 22.149 44.726L22.382 44.889C21.1776 49.8666 19.1496 54.608 16.382 58.917 14.847 61.4281 12.7776 63.5702 10.321 65.191L38.995 90.781C38.995 90.781 47.457 87.7 51.808 75.3 53.1579 71.4471 54.2972 67.5236 55.221 63.547 55.3922 63.5903 55.5718 63.5865 55.741 63.536L56.01 63.444C56.907 65.12 59 68.68 61 69.616 61.8207 70.0564 62.8073 70.0564 63.628 69.616 64.1707 69.301 64.612 68.8375 64.9 68.28 64.9015 68.2759 64.9061 68.2737 64.9103 68.2753 64.9125 68.2761 64.9142 68.2778 64.915 68.28 67.656 72.175 70.493 72.964 72.338 72.964 72.5685 72.9642 72.7988 72.9519 73.028 72.927 74.0649 72.8337 75.0193 72.323 75.672 71.512 76.2298 70.773 76.5933 69.9059 76.729 68.99 76.729 68.981 76.737 68.978 76.743 68.984 78.335 70.314 80.859 72.036 83.352 72.143 87.452 72.343 91.752 68.625 93.742 65.001 93.906 64.7165 93.9275 64.3716 93.8 64.069ZM83.44 70.145C80.249 70.009 76.585 66.121 76.549 66.082 76.1722 65.6783 75.5394 65.6565 75.1356 66.0333 74.9049 66.2487 74.7894 66.5603 74.824 66.874 74.9518 68.0504 74.701 69.2369 74.108 70.261 73.7882 70.6583 73.3169 70.9038 72.808 70.938 70.208 71.22 67.6 69.25 65.461 65.384 65.1932 64.901 64.5846 64.7265 64.1015 64.9943 63.8219 65.1493 63.6333 65.4287 63.594 65.746 63.437 67.014 63.009 67.673 62.66 67.866 62.582 67.908 62.347 68.038 61.848 67.804 60.448 67.148 58.361 63.735 57.378 61.737 57.1362 61.2462 56.545 61.0408 56.051 61.276 56.051 61.276 55.933 61.33 55.751 61.406 56.051 60.173 56.359 58.984 56.696 57.811 56.8876 57.1397 56.4988 56.4402 55.8276 56.2486 55.7126 56.2157 55.5936 56.1994 55.474 56.2L55.474 56.2C55.1841 56.3142 54.9629 56.5554 54.874 56.854 54.4 58.488 54 60.141 53.566 61.9L53.356 62.757 53.3 62.982C52.3871 66.9267 51.2591 70.8185 49.921 74.64 46.8 83.524 41.558 87.2 39.341 88.408L13.484 65.323C15.3063 63.7922 16.8671 61.9747 18.105 59.942 21.0582 55.3018 23.208 50.1969 24.464 44.842 24.5608 44.466 24.4332 44.0678 24.136 43.818L22.924 42.81C22.6466 42.5829 22.3962 42.3245 22.178 42.04L22.085 41.921C21.8215 41.57 21.5922 41.1946 21.4 40.8 21.2114 40.3681 20.7469 40.1264 20.285 40.22 19.264 40.428 16.057 40.777 14.753 39.697 14.442 39.441 14.441 39.243 14.44 39.168 14.5637 38.5633 14.9236 38.0331 15.44 37.695 15.8631 37.34 15.9182 36.7092 15.5632 36.2862 15.3729 36.0594 15.092 35.9287 14.796 35.929L14.791 35.929C10.847 35.923 9.236 34.062 8.922 33.062 8.58784 31.8727 9.12947 30.6116 10.222 30.035 10.7069 29.7706 10.8855 29.1631 10.6211 28.6783 10.4837 28.4264 10.2448 28.2456 9.965 28.182 8.851 27.927 5.723 26.869 4.634 25.048 3.534 23.248 3.734 20.115 4.604 17.615 4.60691 17.6103 4.61307 17.6089 4.61777 17.6118 4.61908 17.6126 4.62019 17.6137 4.621 17.615 6.414 19.748 9.184 20.888 11.278 21.594 13.6149 22.3794 16.0283 22.9157 18.478 23.194 20.756 23.494 22.131 23.681 23.636 25.154 25.3247 27.0261 26.2673 29.4529 26.285 31.974 26.2896 32.0895 26.3136 32.2035 26.356 32.311 25.164 35.318 24.333 37.839 23.696 40.011 23.5748 40.5498 23.9134 41.0849 24.4522 41.2061 24.9459 41.3171 25.4447 41.0419 25.614 40.565 26.5032 37.5369 27.5585 34.5601 28.775 31.648 32.8501 21.931 39.5862 13.5623 48.208 7.505L76.408 28C72.56 31.12 64.444 38.187 59.825 45.725 58.8336 47.3348 57.9432 49.0047 57.159 50.725 56.838 51.41 56.55 52.081 56.287 52.743 56.1709 53.0135 56.2961 53.3269 56.5666 53.443 56.7008 53.5006 56.8528 53.5006 56.987 53.443L58.325 52.897 58.512 52.791C61.23 50.749 66.345 47.612 70.67 48.951 73.253 49.751 74.37 51.177 76.225 53.542 78.1077 56.04 80.2301 58.348 82.562 60.433 85.013 62.615 87.843 64.904 91.106 65.402 91.1115 65.4029 91.1152 65.408 91.1143 65.4135 91.1141 65.4147 91.1136 65.4159 91.113 65.417 89.2 68.021 86.146 70.287 83.439 70.145Z" stroke="#1B2D4F" fill="#1B2D4F"/></g></svg>